<svg id="svg" xmlns="http://www.w3.org/2000/svg" xmlns:xlink="http://www.w3.org/1999/xlink" width="100" height="100" viewBox="0, 0, 400,400"><g id="svgg"><path id="path0" d="M8.000 24.000 L 8.000 40.000 24.000 40.000 L 40.000 40.000 40.000 56.000 L 40.000 72.000 24.000 72.000 L 8.000 72.000 8.000 88.000 L 8.000 104.000 24.000 104.000 L 40.000 104.000 40.000 120.000 L 40.000 136.000 24.000 136.000 L 8.000 136.000 8.000 152.000 L 8.000 168.000 24.000 168.000 L 40.000 168.000 40.000 184.000 L 40.000 200.000 24.000 200.000 L 8.000 200.000 8.000 216.000 L 8.000 232.000 24.000 232.000 L 40.000 232.000 40.000 216.000 L 40.000 200.000 56.000 200.000 L 72.000 200.000 72.000 184.000 L 72.000 168.000 112.000 168.000 L 152.000 168.000 152.000 184.000 L 152.000 200.000 168.000 200.000 L 184.000 200.000 184.000 216.000 L 184.000 232.000 200.000 232.000 L 216.000 232.000 216.000 216.000 L 216.000 200.000 232.000 200.000 L 248.000 200.000 248.000 184.000 L 248.000 168.000 288.000 168.000 L 328.000 168.000 328.000 184.000 L 328.000 200.000 344.000 200.000 L 360.000 200.000 360.000 216.000 L 360.000 232.000 376.000 232.000 L 392.000 232.000 392.000 216.000 L 392.000 200.000 376.000 200.000 L 360.000 200.000 360.000 184.000 L 360.000 168.000 376.000 168.000 L 392.000 168.000 392.000 152.000 L 392.000 136.000 376.000 136.000 L 360.000 136.000 360.000 120.000 L 360.000 104.000 376.000 104.000 L 392.000 104.000 392.000 88.000 L 392.000 72.000 376.000 72.000 L 360.000 72.000 360.000 56.000 L 360.000 40.000 376.000 40.000 L 392.000 40.000 392.000 24.000 L 392.000 8.000 376.000 8.000 L 360.000 8.000 360.000 24.000 L 360.000 40.000 344.000 40.000 L 328.000 40.000 328.000 56.000 L 328.000 72.000 272.000 72.000 L 216.000 72.000 216.000 56.000 L 216.000 40.000 200.000 40.000 L 184.000 40.000 184.000 56.000 L 184.000 72.000 128.000 72.000 L 72.000 72.000 72.000 56.000 L 72.000 40.000 56.000 40.000 L 40.000 40.000 40.000 24.000 L 40.000 8.000 24.000 8.000 L 8.000 8.000 8.000 24.000 M72.000 88.000 L 72.000 104.000 56.000 104.000 L 40.000 104.000 40.000 88.000 L 40.000 72.000 56.000 72.000 L 72.000 72.000 72.000 88.000 M216.000 88.000 L 216.000 104.000 232.000 104.000 L 248.000 104.000 248.000 120.000 L 248.000 136.000 232.000 136.000 L 216.000 136.000 216.000 152.000 L 216.000 168.000 200.000 168.000 L 184.000 168.000 184.000 152.000 L 184.000 136.000 168.000 136.000 L 152.000 136.000 152.000 120.000 L 152.000 104.000 168.000 104.000 L 184.000 104.000 184.000 88.000 L 184.000 72.000 200.000 72.000 L 216.000 72.000 216.000 88.000 M360.000 88.000 L 360.000 104.000 344.000 104.000 L 328.000 104.000 328.000 88.000 L 328.000 72.000 344.000 72.000 L 360.000 72.000 360.000 88.000 M184.000 120.000 L 184.000 136.000 200.000 136.000 L 216.000 136.000 216.000 120.000 L 216.000 104.000 200.000 104.000 L 184.000 104.000 184.000 120.000 M72.000 152.000 L 72.000 168.000 56.000 168.000 L 40.000 168.000 40.000 152.000 L 40.000 136.000 56.000 136.000 L 72.000 136.000 72.000 152.000 M360.000 152.000 L 360.000 168.000 344.000 168.000 L 328.000 168.000 328.000 152.000 L 328.000 136.000 344.000 136.000 L 360.000 136.000 360.000 152.000 " stroke="none" fill="#000000" fill-rule="evenodd"></path></g></svg>