<svg id="svg" xmlns="http://www.w3.org/2000/svg" xmlns:xlink="http://www.w3.org/1999/xlink" width="100" height="100" viewBox="0, 0, 400,400"><g id="svgg"><path id="path0" d="M72.000 104.000 L 72.000 168.000 56.000 168.000 L 40.000 168.000 40.000 184.000 L 40.000 200.000 24.000 200.000 L 8.000 200.000 8.000 248.000 L 8.000 296.000 24.000 296.000 L 40.000 296.000 40.000 264.000 L 40.000 232.000 56.000 232.000 L 72.000 232.000 72.000 264.000 L 72.000 296.000 88.000 296.000 L 104.000 296.000 104.000 312.000 L 104.000 328.000 136.000 328.000 L 168.000 328.000 168.000 312.000 L 168.000 296.000 136.000 296.000 L 104.000 296.000 104.000 264.000 L 104.000 232.000 88.000 232.000 C 74.667 232.000,72.000 230.667,72.000 224.000 C 72.000 216.381,74.667 216.000,128.000 216.000 L 184.000 216.000 184.000 232.000 L 184.000 248.000 200.000 248.000 L 216.000 248.000 216.000 232.000 L 216.000 216.000 272.000 216.000 C 325.333 216.000,328.000 216.381,328.000 224.000 C 328.000 230.667,325.333 232.000,312.000 232.000 L 296.000 232.000 296.000 264.000 L 296.000 296.000 264.000 296.000 L 232.000 296.000 232.000 312.000 L 232.000 328.000 264.000 328.000 L 296.000 328.000 296.000 312.000 L 296.000 296.000 312.000 296.000 L 328.000 296.000 328.000 264.000 L 328.000 232.000 344.000 232.000 L 360.000 232.000 360.000 264.000 L 360.000 296.000 376.000 296.000 L 392.000 296.000 392.000 248.000 L 392.000 200.000 376.000 200.000 L 360.000 200.000 360.000 184.000 L 360.000 168.000 344.000 168.000 L 328.000 168.000 328.000 104.000 L 328.000 40.000 312.000 40.000 L 296.000 40.000 296.000 56.000 L 296.000 72.000 200.000 72.000 L 104.000 72.000 104.000 56.000 L 104.000 40.000 88.000 40.000 L 72.000 40.000 72.000 104.000 M168.000 120.000 L 168.000 136.000 136.000 136.000 L 104.000 136.000 104.000 120.000 L 104.000 104.000 136.000 104.000 L 168.000 104.000 168.000 120.000 M296.000 120.000 L 296.000 136.000 264.000 136.000 L 232.000 136.000 232.000 120.000 L 232.000 104.000 264.000 104.000 L 296.000 104.000 296.000 120.000 M328.000 176.000 C 328.000 183.833,325.333 184.000,200.000 184.000 C 74.667 184.000,72.000 183.833,72.000 176.000 C 72.000 168.167,74.667 168.000,200.000 168.000 C 325.333 168.000,328.000 168.167,328.000 176.000 " stroke="none" fill="#000000" fill-rule="evenodd"></path></g></svg>