<svg id="svg" xmlns="http://www.w3.org/2000/svg" xmlns:xlink="http://www.w3.org/1999/xlink" width="100" height="100" viewBox="0, 0, 400,400"><g id="svgg"><path id="path0" d="M168.000 16.000 C 168.000 22.667,165.333 24.000,152.000 24.000 C 138.667 24.000,136.000 25.333,136.000 32.000 C 136.000 38.667,133.333 40.000,120.000 40.000 C 106.667 40.000,104.000 41.333,104.000 48.000 C 104.000 54.667,101.333 56.000,88.000 56.000 C 74.667 56.000,72.000 57.333,72.000 64.000 C 72.000 70.667,69.333 72.000,56.000 72.000 L 40.000 72.000 40.000 136.000 L 40.000 200.000 24.000 200.000 L 8.000 200.000 8.000 216.000 L 8.000 232.000 24.000 232.000 L 40.000 232.000 40.000 248.000 L 40.000 264.000 24.000 264.000 L 8.000 264.000 8.000 280.000 L 8.000 296.000 24.000 296.000 L 40.000 296.000 40.000 312.000 L 40.000 328.000 56.000 328.000 L 72.000 328.000 72.000 312.000 L 72.000 296.000 56.000 296.000 L 40.000 296.000 40.000 280.000 L 40.000 264.000 56.000 264.000 L 72.000 264.000 72.000 248.000 L 72.000 232.000 56.000 232.000 L 40.000 232.000 40.000 216.000 L 40.000 200.000 56.000 200.000 L 72.000 200.000 72.000 184.000 L 72.000 168.000 104.000 168.000 L 136.000 168.000 136.000 184.000 L 136.000 200.000 120.000 200.000 L 104.000 200.000 104.000 216.000 L 104.000 232.000 120.000 232.000 L 136.000 232.000 136.000 248.000 L 136.000 264.000 120.000 264.000 L 104.000 264.000 104.000 280.000 L 104.000 296.000 120.000 296.000 L 136.000 296.000 136.000 312.000 L 136.000 328.000 152.000 328.000 L 168.000 328.000 168.000 312.000 L 168.000 296.000 152.000 296.000 L 136.000 296.000 136.000 280.000 L 136.000 264.000 152.000 264.000 L 168.000 264.000 168.000 248.000 L 168.000 232.000 152.000 232.000 L 136.000 232.000 136.000 216.000 L 136.000 200.000 152.000 200.000 L 168.000 200.000 168.000 184.000 L 168.000 168.000 200.000 168.000 L 232.000 168.000 232.000 184.000 L 232.000 200.000 216.000 200.000 L 200.000 200.000 200.000 216.000 L 200.000 232.000 216.000 232.000 L 232.000 232.000 232.000 248.000 L 232.000 264.000 216.000 264.000 L 200.000 264.000 200.000 280.000 L 200.000 296.000 216.000 296.000 L 232.000 296.000 232.000 312.000 L 232.000 328.000 248.000 328.000 L 264.000 328.000 264.000 312.000 L 264.000 296.000 248.000 296.000 L 232.000 296.000 232.000 280.000 L 232.000 264.000 248.000 264.000 L 264.000 264.000 264.000 248.000 L 264.000 232.000 248.000 232.000 L 232.000 232.000 232.000 216.000 L 232.000 200.000 248.000 200.000 L 264.000 200.000 264.000 184.000 L 264.000 168.000 296.000 168.000 L 328.000 168.000 328.000 184.000 L 328.000 200.000 312.000 200.000 L 296.000 200.000 296.000 216.000 L 296.000 232.000 312.000 232.000 L 328.000 232.000 328.000 248.000 L 328.000 264.000 312.000 264.000 L 296.000 264.000 296.000 280.000 L 296.000 296.000 312.000 296.000 L 328.000 296.000 328.000 312.000 L 328.000 328.000 344.000 328.000 L 360.000 328.000 360.000 312.000 L 360.000 296.000 344.000 296.000 L 328.000 296.000 328.000 280.000 L 328.000 264.000 344.000 264.000 L 360.000 264.000 360.000 248.000 L 360.000 232.000 344.000 232.000 L 328.000 232.000 328.000 216.000 L 328.000 200.000 344.000 200.000 L 360.000 200.000 360.000 136.000 L 360.000 72.000 344.000 72.000 C 330.667 72.000,328.000 70.667,328.000 64.000 C 328.000 57.333,325.333 56.000,312.000 56.000 C 298.667 56.000,296.000 54.667,296.000 48.000 C 296.000 41.333,293.333 40.000,280.000 40.000 C 266.667 40.000,264.000 38.667,264.000 32.000 C 264.000 25.333,261.333 24.000,248.000 24.000 C 234.667 24.000,232.000 22.667,232.000 16.000 C 232.000 8.667,229.333 8.000,200.000 8.000 C 170.667 8.000,168.000 8.667,168.000 16.000 M168.000 104.000 L 168.000 120.000 152.000 120.000 L 136.000 120.000 136.000 104.000 L 136.000 88.000 152.000 88.000 L 168.000 88.000 168.000 104.000 M264.000 104.000 L 264.000 120.000 248.000 120.000 L 232.000 120.000 232.000 104.000 L 232.000 88.000 248.000 88.000 L 264.000 88.000 264.000 104.000 " stroke="none" fill="#000000" fill-rule="evenodd"></path></g></svg>