<svg version="1.1" id="Capa_1" xmlns="http://www.w3.org/2000/svg" xmlns:xlink="http://www.w3.org/1999/xlink" x="0px" y="0px"
	 width="400.1px" height="400.1px" viewBox="0 0 466.1 466.1" style="enable-background:new 0 0 466.1 466.1;" xml:space="preserve"
	>
<g>
	<g id="Layer_2_22_">
		<g>
			<path d="M175.375,195.881c0,6.979,5.636,12.63,12.599,12.63c6.956,0,12.576-5.651,12.576-12.63
				c0-6.945-5.62-12.595-12.576-12.595C181.011,183.286,175.375,188.936,175.375,195.881z"/>
			<path d="M89.182,241.674c13.734,24.223,33.869,46.236,57.28,62.512c9.723,6.758,19.808,12.409,30.114,16.912
				c-1.081,5.768-2.526,20.18-2.526,21.303c0,5.799,4.701,10.5,10.5,10.5c3.676,0,6.907-1.894,8.783-4.754
				c1.903,2.672,5.02,4.42,8.55,4.42c3.677,0,6.907-1.893,8.783-4.752c1.903,2.672,5.02,4.42,8.55,4.42
				c2.256,0,4.34-0.719,6.051-1.93c0.354-0.336,0.752-0.632,1.166-0.91c1.582,1.937,3.951,3.194,6.617,3.316
				c2.666-0.122,5.035-1.38,6.617-3.316c0.414,0.277,0.812,0.573,1.166,0.91c1.711,1.211,3.795,1.93,6.051,1.93
				c3.531,0,6.646-1.748,8.551-4.42c1.875,2.86,5.105,4.752,8.783,4.752c3.529,0,6.646-1.748,8.549-4.42
				c1.877,2.861,5.107,4.754,8.783,4.754c5.799,0,10.5-4.701,10.5-10.5c0-1.123-1.445-15.535-2.525-21.303
				c10.307-4.503,20.391-10.154,30.113-16.912c23.412-16.275,43.547-38.289,57.279-62.512c13.479-0.818,24.576-6.314,32.252-16.021
				c7.627-9.644,11.494-22.809,11.494-39.13c0-27.167-11.576-48.057-30.658-56.266c-8.672-33.803-27.623-65.155-53.816-88.843
				C306.847,14.88,270.249,0.194,233.05,0c-37.197,0.194-73.796,14.88-103.138,41.414c-26.193,23.688-45.144,55.04-53.815,88.843
				c-19.084,8.21-30.661,29.099-30.661,56.267c0,16.321,3.867,29.487,11.494,39.13C64.606,235.359,75.704,240.855,89.182,241.674z
				 M233.049,21.988c56.362,0.331,100.559,37.676,123.184,81.421c-2.289,8.072-3.584,17.635-4.035,27.297l-32.689,27.841
				c-9.027-7.25-21.068-11.68-34.297-11.68c-15.567,0-29.49,6.136-38.791,15.785H233.05h-13.37
				c-9.301-9.648-23.224-15.785-38.792-15.785c-13.229,0-25.27,4.43-34.297,11.68l-32.689-27.841
				c-0.453-9.662-1.747-19.225-4.036-27.297C132.49,59.664,176.688,22.319,233.049,21.988z M307.765,192.851
				c0,13.55-11.016,24.581-24.602,24.581c-13.542,0-24.559-10.996-24.559-24.581c0-13.566,11.017-24.577,24.559-24.577
				C296.749,168.274,307.765,179.284,307.765,192.851z M207.493,192.851c0,13.585-11.017,24.581-24.559,24.581
				c-13.584,0-24.6-11.031-24.6-24.581c0-13.566,11.016-24.577,24.6-24.577C196.478,168.274,207.493,179.284,207.493,192.851z
				 M86.648,149.751c1.109,7.619,5.415,32.069,15.198,33.614c4.427,0.699,7.957-6.983,10.068-18.393l19.484,16.595
				c-0.78,3.087-1.204,6.291-1.204,9.583c0,24.456,22.697,44.282,50.694,44.282c24.471,0,44.896-15.149,49.65-35.298h2.512h2.512
				c4.754,20.148,25.179,35.298,49.649,35.298c27.996,0,50.693-19.826,50.693-44.282c0-3.292-0.424-6.496-1.203-9.583l19.482-16.595
				c2.111,11.41,5.643,19.092,10.068,18.393c9.783-1.544,14.088-25.995,15.197-33.614c17.809,5.848,19.23,29.499,19.23,36.773
				c0,22.081-8.525,33.277-25.34,33.277c-0.389,0-0.965-0.045-1.574-0.094l-7.795-0.594l-3.338,6.476
				c-14.592,28.304-42.422,58.067-77.367,74.222c-5.18-12.531-9.135-43.992-50.135-43.992c-0.028,0-0.055,0.002-0.083,0.002
				c-0.028,0-0.055-0.002-0.083-0.002c-41,0-44.955,31.461-50.134,43.992c-34.947-16.154-62.777-45.918-77.367-74.222l-3.339-6.476
				l-7.794,0.594c-0.61,0.049-1.186,0.094-1.574,0.094c-16.814,0-25.339-11.196-25.339-33.277
				C67.418,179.25,68.84,155.598,86.648,149.751z"/>
			<path d="M265.548,195.881c0,6.979,5.621,12.63,12.576,12.63c6.963,0,12.6-5.651,12.6-12.63c0-6.945-5.637-12.595-12.6-12.595
				C271.169,183.286,265.548,188.936,265.548,195.881z"/>
			<!-- <path d="M332.595,331.854c-0.002,0-0.02,0.008-0.027,0.01c-0.104-0.006-0.199-0.03-0.305-0.03c-2.512,0-4.547,2.036-4.547,4.547
				c0,0.019,0.006,0.034,0.006,0.051c0,0.019-0.006,0.035-0.006,0.054c0,0.187,0.033,0.363,0.055,0.545
				c-0.002,0-0.008,0.012-0.008,0.012l0.029,0.204c0.012,0.069,0.016,0.14,0.029,0.208l8.363,57.201
				c0.572,3.924-0.998,7.854-4.121,10.297c-1.979,1.547-4.383,2.35-6.811,2.35c-1.412,0-2.826-0.273-4.178-0.822
				c0,0-52.831-23.65-63.146-27.146c-0.025-0.009-0.071-0.009-0.107-0.013c-0.682-0.246-1.413-0.389-2.18-0.389
				c-1.959,0-3.711,0.883-4.883,2.27c-0.004,0.002-0.019,0.006-0.019,0.006l-13.047,13.078c0,0-0.022-0.014-0.035-0.021
				c-1.149,1.107-2.711,1.793-4.435,1.793c-0.06,0-0.117-0.006-0.176-0.008c-0.059,0-0.116,0.008-0.176,0.008
				c-1.724,0-3.284-0.686-4.435-1.793c-0.012,0.008-0.035,0.021-0.035,0.021l-13.047-13.078c0,0-0.015-0.004-0.018-0.006
				c-1.173-1.387-2.924-2.27-4.883-2.27c-0.767,0-1.498,0.143-2.18,0.389c-0.036,0.004-0.082,0.004-0.107,0.013
				c-10.316,3.495-63.147,27.146-63.147,27.146c-1.35,0.549-2.766,0.822-4.177,0.822c-2.428,0-4.833-0.803-6.811-2.35
				c-3.123-2.443-4.693-6.373-4.121-10.297l8.459-57.274c0.002-0.009-0.007-0.011-0.009-0.019c0.07-0.316,0.113-0.644,0.113-0.981
				c0-2.511-2.035-4.547-4.547-4.547c-0.12,0-0.232,0.026-0.35,0.034c-0.024-0.002-0.054-0.016-0.077-0.014
				c-33.666,2.238-77.155,32.561-77.155,70.744c0,39.688,0,63.502,0,63.502h176.701h176.702c0,0,0-23.814,0-63.502
				C409.751,364.413,366.261,334.092,332.595,331.854z"/> -->
		</g>
	</g>
</g>
<g>
</g>
<g>
</g>
<g>
</g>
<g>
</g>
<g>
</g>
<g>
</g>
<g>
</g>
<g>
</g>
<g>
</g>
<g>
</g>
<g>
</g>
<g>
</g>
<g>
</g>
<g>
</g>
<g>
</g>
</svg>
