<svg xmlns="http://www.w3.org/2000/svg" viewBox="0 0 48 48" width="100" height="100">
    <path fill="#f44336" d="M34,6c-4.176,0-7.852,2.137-10,5.371C21.852,8.137,18.176,6,14,6C7.371,6,2,11.371,2,18	c0,11.941,22,24,22,24s22-11.953,22-24C46,11.371,40.629,6,34,6"></path>
    <path fill="#c62828" d="M25.372,41.212l-0.761-3.803l5.129-6.155l-6.128-14.299l3.069-8.439	c-1.039,0.803-1.954,1.76-2.681,2.855c-0.317-0.478-0.678-0.923-1.058-1.35l-2.554,7.024l5.872,13.701l-4.871,5.845l0.88,4.398	C23.342,41.638,24,42,24,42S24.512,41.721,25.372,41.212z"></path>
    <path fill="#ffcc80" d="M29.968,18.138l-12.165,4.088c-1.215,2.255-0.683,5.307,2.23,6.635l12.165-4.088	C33.717,21.955,32.298,19.201,29.968,18.138z"></path>
    <path fill="#ffa726" d="M22.42,21.73l3.568-1.199c0.585-0.197,1.219,0.118,1.416,0.704l0.88,2.62	c0.197,0.585-0.118,1.219-0.704,1.416l-3.568,1.199c-0.585,0.197-1.219-0.118-1.416-0.704l-0.88-2.62	C21.519,22.56,21.834,21.926,22.42,21.73z"></path>
</svg>